<?xml version="1.0" encoding="utf-8" ?><svg xmlns="http://www.w3.org/2000/svg" xmlns:xlink="http://www.w3.org/1999/xlink" width="1024" height="1024" viewBox="0 0 1024 1024"><path fill="white" d="M0 0L1024 0L1024 1024L0 1024L0 0Z"/><path fill="#3BBF8A" d="M447.455 304.597C455.475 304.05 457.408 315.775 451.014 317.997C434.951 323.582 419.758 329.873 405.295 338.913C358.932 367.295 325.762 412.951 313.098 465.814C300.608 518.455 309.589 573.902 338.057 619.909C367.442 666.951 414.493 700.216 468.641 712.232C521.155 723.687 576.068 714.062 621.556 685.43C667.783 656.458 700.488 610.186 712.372 556.941C731.332 470.299 692.267 381.314 615.653 336.629C606.132 331.218 596.182 326.597 585.905 322.812C579.743 320.484 564.401 318.225 568.08 308.576C571.388 299.897 588.978 308.477 595.121 310.768C602.433 313.486 609.525 316.762 616.335 320.567C676.753 354.328 718.444 409.906 728.778 478.847C735.897 526.34 728.106 576.412 704.357 618.367C675.443 670.214 626.973 708.325 569.768 724.191C513.206 738.968 453.103 730.962 402.382 701.893C352.569 672.944 316.083 625.628 300.752 570.091C285.506 513.39 293.599 452.946 323.225 402.254C349.331 357.4 396.994 317.93 447.455 304.597Z"/><path fill="#511B83" d="M573.184 364.934C574.765 363.812 574.712 364.002 576.588 363.893L577.601 363.827C589.817 366.162 608.466 370.932 615.869 381.848C618.861 386.241 619.938 391.662 618.852 396.866C616.756 407.388 596.501 429.238 589.11 438.221C573.592 457.083 558.428 476.243 542.795 495.007C536.765 502.243 530.988 510.009 524.461 516.781C516.672 524.862 508.151 532.167 500.001 539.87L436.109 599.711C426.369 608.883 415.771 618.256 406.506 627.764L405.384 626.27C423.035 604.059 441.674 580.794 458.972 558.368L483.689 526.524C485.627 524.043 487.82 521.445 489.648 518.909C497.338 508.243 506.439 499.707 515.729 490.473L549.004 457.48L585.118 421.569C591.215 415.477 597.243 409.463 603.218 403.204C608.836 397.319 610.564 390.637 605.868 383.343C598.877 372.482 585.154 367.845 573.184 364.934Z"/><path fill="#745A8E" d="M561.949 362.255C567.225 362.859 572.292 362.91 577.601 363.827L576.588 363.893C574.712 364.002 574.765 363.812 573.184 364.934C571.127 364.941 563.533 363.382 561.045 362.952C561.345 362.717 561.646 362.485 561.949 362.255Z"/><path fill="#C6C3CC" d="M561.045 362.952C560.133 362.996 553.057 362.631 552.809 362.105C552.99 361.033 561.079 361.926 561.949 362.255C561.646 362.485 561.345 362.717 561.045 362.952Z"/><path fill="#745A8E" d="M405.384 626.27L406.506 627.764C405.392 628.88 404.214 629.929 403.144 631.067L401.714 630.857C403.03 629.331 404.112 627.788 405.384 626.27Z"/><path fill="#C6C3CC" d="M397.724 635.84C399.023 633.752 400.013 632.673 401.714 630.857L403.144 631.067C401.425 632.748 399.548 634.275 397.724 635.84Z"/></svg>